<svg id="svg" version="1.1" xmlns="http://www.w3.org/2000/svg" xmlns:xlink="http://www.w3.org/1999/xlink" width="400" height="400" viewBox="0, 0, 400,400"><g id="svgg"><path id="path0" d="M192.969 24.812 L 192.969 49.624 177.291 65.242 C 158.059 84.400,157.088 86.041,161.913 91.211 L 163.554 92.969 199.781 92.969 L 236.009 92.969 237.926 91.051 C 242.491 86.486,241.679 85.129,223.438 66.815 L 207.031 50.344 207.031 25.172 L 207.031 0.000 200.000 0.000 L 192.969 0.000 192.969 24.812 M207.422 71.094 L 215.205 78.906 199.609 78.906 L 184.014 78.906 191.797 71.094 C 196.078 66.797,199.593 63.281,199.609 63.281 C 199.625 63.281,203.141 66.797,207.422 71.094 M15.625 180.208 C 1.026 185.305,0.576 188.435,6.605 243.042 C 12.183 293.561,12.486 294.765,21.765 303.245 L 26.080 307.189 13.330 351.728 C 4.541 382.426,0.852 396.436,1.457 396.810 C 3.415 398.020,13.413 400.178,14.020 399.522 C 14.374 399.141,20.226 379.199,27.025 355.208 L 39.386 311.588 41.666 312.044 C 42.919 312.295,54.976 312.500,68.457 312.500 L 92.969 312.500 92.969 355.469 L 92.969 398.438 100.000 398.438 L 107.031 398.438 107.031 354.782 L 107.031 311.127 109.395 310.148 C 122.023 304.917,123.951 284.648,112.642 276.022 C 107.515 272.112,105.630 271.884,78.320 271.879 C 64.463 271.877,53.126 271.611,53.127 271.289 C 53.156 263.982,41.711 192.701,40.006 189.566 C 35.212 180.750,25.143 176.885,15.625 180.208 M95.551 180.790 L 93.359 182.675 93.098 196.998 C 92.647 221.741,88.105 219.531,139.414 219.531 L 179.688 219.531 179.688 288.614 L 179.688 357.697 168.290 357.950 C 152.390 358.303,153.125 357.310,153.125 378.453 L 153.125 394.318 155.185 396.378 L 157.244 398.438 199.672 398.438 L 242.100 398.437 244.292 396.554 L 246.484 394.670 246.738 380.343 C 247.131 358.091,246.931 357.813,230.508 357.813 L 220.313 357.813 220.313 288.692 L 220.313 219.572 261.266 219.356 L 302.219 219.141 304.234 217.247 L 306.250 215.353 306.250 199.189 L 306.250 183.026 304.190 180.966 L 302.131 178.906 199.937 178.906 L 97.743 178.906 95.551 180.790 M370.455 180.345 C 358.838 184.490,358.511 185.434,351.572 234.766 C 348.974 253.242,346.671 269.150,346.456 270.117 L 346.064 271.875 320.493 271.883 C 295.349 271.890,294.857 271.921,291.016 273.713 C 276.654 280.415,275.114 300.558,288.334 308.776 L 292.188 311.171 292.188 354.804 L 292.188 398.438 299.219 398.438 L 306.250 398.438 306.250 355.498 L 306.250 312.559 333.008 312.334 C 347.725 312.211,359.952 312.357,360.180 312.659 C 360.408 312.961,366.170 332.737,372.984 356.604 C 382.291 389.204,385.666 400.000,386.548 400.000 C 387.510 400.000,398.516 396.982,398.959 396.597 C 399.031 396.534,393.376 376.444,386.392 351.952 L 373.694 307.422 378.139 303.125 C 382.512 298.897,385.050 294.899,387.161 288.915 C 388.653 284.687,397.894 201.295,397.376 196.733 C 395.933 184.014,382.717 175.969,370.455 180.345 M26.193 194.742 C 28.208 196.475,28.396 197.488,34.365 238.794 C 37.725 262.046,40.852 281.778,41.315 282.641 C 42.917 285.635,45.987 285.938,74.761 285.938 L 102.415 285.938 104.332 287.855 C 107.640 291.163,106.521 295.920,102.034 297.626 C 98.250 299.064,44.120 298.692,39.009 297.192 C 33.784 295.658,27.424 289.587,25.993 284.766 C 25.036 281.543,16.406 205.015,16.406 199.754 C 16.406 193.971,21.979 191.117,26.193 194.742 M292.188 199.219 L 292.188 205.469 199.609 205.469 L 107.031 205.469 107.031 199.219 L 107.031 192.969 199.609 192.969 L 292.188 192.969 292.188 199.219 M381.534 195.028 C 384.120 197.615,384.354 193.340,378.971 241.836 C 372.301 301.918,375.806 297.938,329.297 298.253 C 296.423 298.476,295.870 298.416,293.937 294.385 C 293.214 292.876,293.170 291.760,293.773 290.175 C 295.378 285.951,295.097 285.989,325.144 285.962 C 353.967 285.937,356.123 285.720,358.111 282.652 C 358.849 281.513,361.449 265.625,365.242 239.072 C 368.525 216.088,371.607 196.752,372.091 196.103 C 374.893 192.339,378.441 191.935,381.534 195.028 M206.250 288.672 L 206.250 357.813 200.000 357.813 L 193.750 357.813 193.750 288.672 L 193.750 219.531 200.000 219.531 L 206.250 219.531 206.250 288.672 M232.813 378.125 L 232.813 384.375 200.000 384.375 L 167.188 384.375 167.188 378.125 L 167.188 371.875 200.000 371.875 L 232.813 371.875 232.813 378.125 " stroke="none" fill="#000000" fill-rule="evenodd"></path></g></svg>